<?xml version="1.0" standalone="no"?>
<!DOCTYPE svg PUBLIC "-//W3C//DTD SVG 20010904//EN"
 "http://www.w3.org/TR/2001/REC-SVG-20010904/DTD/svg10.dtd">
<svg version="1.0" xmlns="http://www.w3.org/2000/svg"
 width="515.000000pt" height="484.000000pt" viewBox="0 0 515.000000 484.000000"
 preserveAspectRatio="xMidYMid meet">

<g transform="translate(0.000000,484.000000) scale(0.100000,-0.100000)"
fill="#000000" stroke="none">
<path d="M2385 4624 c-314 -34 -660 -149 -919 -306 -358 -217 -646 -528 -832
-901 -308 -614 -309 -1349 -2 -1961 137 -274 333 -519 573 -717 81 -67 205
-155 260 -185 11 -6 49 -28 85 -48 216 -124 530 -223 795 -251 235 -24 518
-13 710 29 106 23 330 94 404 128 36 17 85 39 109 49 93 40 323 187 420 268
85 71 255 237 298 291 239 302 375 576 459 925 64 265 70 640 15 916 -29 143
-94 345 -154 477 -121 266 -241 437 -456 652 -250 251 -518 416 -856 529 -227
76 -387 102 -654 106 -118 2 -233 1 -255 -1z m488 -99 c347 -52 603 -146 869
-318 139 -90 231 -162 333 -264 194 -193 313 -358 426 -593 177 -367 240 -748
194 -1171 -45 -400 -225 -807 -497 -1122 -94 -109 -257 -257 -381 -345 -48
-34 -89 -62 -92 -62 -3 0 -33 -18 -68 -39 -147 -90 -384 -184 -584 -231 -273
-65 -689 -64 -948 1 -430 109 -768 303 -1055 606 -152 161 -241 285 -341 478
-121 232 -188 450 -224 721 -54 410 36 882 238 1249 115 207 229 356 399 520
328 317 743 514 1205 574 114 14 418 12 526 -4z"/>
<path d="M2349 4425 c-101 -14 -269 -48 -329 -67 -419 -130 -808 -410 -1054
-758 -106 -149 -221 -375 -274 -540 -25 -78 -66 -255 -83 -365 -19 -116 -16
-427 5 -550 44 -260 109 -456 224 -668 296 -548 847 -933 1463 -1023 142 -21
426 -24 569 -6 877 113 1596 825 1717 1700 31 225 19 529 -28 732 -50 215
-159 473 -269 640 -345 520 -863 839 -1475 910 -120 13 -348 11 -466 -5z m427
-35 c284 -22 593 -123 846 -276 227 -138 441 -339 590 -555 77 -111 158 -250
158 -270 0 -7 -22 9 -50 36 -27 27 -52 46 -55 43 -7 -7 91 -98 105 -98 21 0
92 -181 130 -330 54 -216 64 -290 64 -500 0 -215 -12 -309 -66 -515 -32 -125
-108 -317 -166 -420 -19 -33 -43 -76 -54 -95 -109 -191 -334 -431 -540 -576
-85 -60 -272 -168 -328 -189 -19 -8 -69 -28 -110 -45 -80 -33 -294 -89 -425
-111 -120 -20 -455 -17 -575 5 -102 18 -289 66 -357 90 -196 70 -421 197 -588
331 -77 62 -240 230 -309 319 -163 212 -293 481 -360 747 -60 239 -60 668 -1
902 97 377 264 677 525 937 264 263 565 433 929 525 195 48 403 63 637 45z"/>
<path d="M2478 4192 c-32 -14 -58 -29 -58 -33 0 -6 105 35 119 47 16 14 -13 7
-61 -14z"/>
<path d="M2710 4155 c-10 -12 -10 -24 -1 -54 6 -21 11 -65 11 -97 0 -33 4 -65
9 -73 12 -19 98 -33 123 -20 15 8 24 7 39 -7 14 -13 30 -15 69 -12 35 4 53 1
61 -8 13 -16 43 -18 69 -4 15 8 19 5 24 -16 5 -18 21 -32 59 -50 29 -13 62
-24 73 -24 33 0 73 37 80 76 8 44 1 51 -31 30 -21 -14 -24 -20 -15 -36 9 -17
7 -20 -8 -20 -35 0 -134 50 -139 70 -4 16 -9 18 -24 9 -24 -12 -59 -3 -59 17
0 17 -1 17 -35 4 -29 -11 -105 3 -105 19 0 5 -26 7 -58 4 -86 -8 -102 4 -102
75 0 69 -10 132 -20 132 -4 0 -13 -7 -20 -15z"/>
<path d="M2062 4118 c-29 -22 -50 -43 -48 -46 7 -6 106 67 106 79 0 12 2 13
-58 -33z"/>
<path d="M3393 4146 c33 -26 21 -39 -30 -32 -61 8 -37 -11 25 -20 40 -6 72 6
72 27 0 17 -33 39 -58 39 -25 -1 -25 -2 -9 -14z"/>
<path d="M3062 4140 c-29 -4 -56 -11 -60 -15 -10 -10 121 6 133 16 10 10 4 10
-73 -1z"/>
<path d="M1685 4068 c-37 -43 -60 -78 -51 -78 9 0 99 111 94 116 -3 3 -22 -14
-43 -38z"/>
<path d="M2435 4079 c-9 -13 13 -30 35 -26 8 1 15 9 15 17 0 18 -40 26 -50 9z"/>
<path d="M2562 4038 c-19 -19 -14 -38 18 -68 17 -15 30 -33 30 -39 0 -39 -140
-66 -186 -36 -23 15 -26 22 -21 53 5 29 4 33 -4 19 -35 -61 -30 -111 12 -132
53 -28 132 -13 182 33 22 21 27 34 27 75 0 28 -7 61 -17 78 -19 32 -24 34 -41
17z"/>
<path d="M1855 4000 c-5 -16 0 -29 18 -48 14 -15 37 -51 51 -80 32 -64 55 -75
114 -54 33 11 46 22 54 43 9 25 15 28 61 31 52 3 52 3 55 39 3 30 -2 41 -24
58 -49 39 -75 25 -97 -50 -10 -34 -20 -48 -47 -61 -57 -28 -64 -24 -111 59
-47 83 -63 96 -74 63z m313 -52 c-7 -20 -58 -23 -58 -4 0 11 10 16 31 16 20 0
29 -4 27 -12z"/>
<path d="M1697 3994 c-20 -20 -4 -59 44 -107 29 -29 59 -63 67 -76 15 -22 15
-25 -8 -43 -39 -31 -115 -67 -157 -74 -36 -5 -40 -10 -52 -50 -22 -75 -5 -106
103 -182 69 -50 56 -23 -19 36 -64 52 -72 65 -57 90 7 10 15 9 41 -4 26 -13
38 -14 57 -5 26 12 33 48 12 69 -6 6 -10 13 -7 14 2 2 26 14 53 28 63 32 90
67 80 104 -4 16 -29 56 -56 89 -35 44 -48 69 -45 84 3 14 -1 23 -9 23 -7 0
-19 2 -26 5 -8 3 -17 2 -21 -1z"/>
<path d="M3310 3990 c-13 -8 -13 -11 2 -26 9 -9 24 -14 32 -11 14 6 14 10 4
27 -14 23 -17 23 -38 10z"/>
<path d="M3453 3948 c-27 -13 -28 -26 -6 -73 10 -21 24 -35 35 -35 21 0 41
-40 52 -101 6 -36 6 -36 -30 -42 -20 -4 -45 -2 -55 4 -14 7 -21 5 -30 -12 -10
-19 -7 -25 17 -45 58 -48 101 -43 118 14 5 20 19 35 37 43 16 6 43 29 60 50
17 22 38 39 46 39 10 0 13 6 9 16 -3 9 -6 22 -6 30 0 8 -9 14 -20 14 -13 0
-25 -14 -40 -47 -45 -103 -75 -109 -83 -16 -7 70 -49 174 -70 172 -7 0 -22 -5
-34 -11z m87 -277 c0 -18 -17 -20 -36 -6 -18 14 -18 14 9 15 15 0 27 -4 27 -9z"/>
<path d="M1502 3884 c-26 -18 -21 -35 8 -27 25 7 25 -1 -2 -46 -22 -36 -22
-36 -1 -18 12 11 29 34 38 53 24 51 3 71 -43 38z"/>
<path d="M3822 3880 c18 -28 5 -33 -37 -15 -56 23 -56 9 -1 -16 52 -23 79 -22
84 2 4 19 -23 49 -44 49 -12 0 -12 -4 -2 -20z"/>
<path d="M2480 3714 c-233 -29 -424 -98 -595 -214 -281 -192 -457 -452 -543
-805 -25 -102 -24 -433 1 -525 61 -221 120 -354 214 -481 277 -376 698 -568
1160 -530 390 33 754 254 970 591 47 72 122 237 147 320 63 210 60 553 -8 753
-151 449 -520 781 -962 867 -104 20 -310 33 -384 24z m380 -63 c485 -111 830
-453 954 -946 25 -97 36 -259 26 -371 -14 -164 -76 -371 -145 -487 -19 -32
-35 -61 -35 -63 0 -6 -36 -55 -98 -134 -271 -343 -751 -518 -1187 -433 -501
97 -894 481 -990 968 -52 260 -19 538 89 770 183 388 517 638 951 711 108 18
323 11 435 -15z"/>
<path d="M2498 3588 c8 -8 12 -48 12 -113 0 -65 -4 -105 -12 -113 -9 -9 8 -12
80 -12 l92 0 0 30 c0 35 -10 38 -28 10 -8 -14 -23 -20 -47 -20 l-35 0 0 50 c0
46 2 50 23 50 13 0 28 -5 35 -12 9 -9 12 -3 12 28 -1 31 -3 36 -11 22 -5 -10
-21 -18 -34 -18 -23 0 -25 4 -25 45 l0 45 39 0 c25 0 41 -5 45 -15 9 -24 26
-17 26 10 0 25 -1 25 -92 25 -72 0 -89 -3 -80 -12z"/>
<path d="M2957 3541 c6 -24 -76 -201 -93 -201 -25 0 -15 -15 17 -27 26 -10 30
-10 25 2 -3 8 13 52 34 97 l40 83 -7 -94 c-8 -124 1 -128 85 -44 35 35 66 62
69 60 8 -9 -77 -167 -90 -167 -12 -1 51 -39 65 -40 4 0 6 8 6 18 -2 30 84 202
100 202 22 0 5 14 -36 30 -33 13 -34 13 -92 -45 l-58 -58 4 42 c13 133 16 120
-27 141 -47 25 -48 25 -42 1z"/>
<path d="M2170 3524 c-45 -20 -46 -21 -23 -41 11 -10 25 -30 31 -45 11 -26 10
-29 -28 -48 l-40 -20 -20 41 c-12 22 -19 47 -16 55 4 10 -1 11 -22 3 -15 -5
-33 -12 -41 -15 -11 -4 -11 -7 2 -22 26 -29 96 -192 90 -208 -5 -13 3 -11 37
6 41 21 41 22 22 36 -23 16 -48 82 -36 94 5 4 24 12 42 18 33 11 34 11 49 -26
8 -20 15 -47 15 -59 0 -22 2 -22 36 -7 47 19 49 22 29 37 -19 14 -77 138 -86
184 l-6 31 -35 -14z"/>
<path d="M2730 3441 c0 -15 6 -21 23 -21 12 0 32 -3 45 -6 18 -5 22 -2 22 15
0 11 -6 21 -14 21 -7 0 -28 3 -45 6 -27 6 -31 4 -31 -15z"/>
<path d="M2363 3443 c-15 -3 -23 -12 -23 -24 0 -18 4 -20 33 -14 41 9 47 13
47 31 0 14 -13 15 -57 7z"/>
<path d="M3300 3358 c0 -19 -118 -172 -136 -176 -20 -5 -18 -10 14 -37 32 -29
42 -31 42 -7 1 20 114 165 136 172 12 5 10 10 -8 26 -34 31 -48 37 -48 22z"/>
<path d="M1810 3295 c-14 -17 -9 -34 37 -135 54 -115 54 -117 37 -135 -20 -19
-15 -20 -132 15 -56 17 -110 30 -121 30 -22 0 -38 -35 -23 -53 5 -7 39 -50 76
-95 36 -46 66 -91 66 -100 0 -13 5 -11 20 8 24 31 25 40 2 40 -21 0 -42 19
-42 38 0 8 9 27 21 43 22 31 52 32 75 3 8 -10 19 -2 49 39 21 29 44 56 52 60
7 4 13 13 13 18 0 6 -4 8 -9 5 -5 -3 -13 0 -18 7 -22 28 -22 47 1 73 18 22 28
26 50 20 15 -4 30 -16 34 -27 7 -18 10 -17 42 17 19 20 30 34 23 30 -6 -3 -60
21 -119 54 -60 33 -111 60 -115 60 -4 0 -12 -7 -19 -15z m77 -71 l45 -26 -24
-25 -23 -24 -15 22 c-20 30 -41 79 -33 79 3 0 26 -12 50 -26z m-183 -226 c22
-6 42 -13 44 -14 5 -3 -29 -54 -37 -54 -12 1 -72 80 -60 80 6 0 30 -5 53 -12z"/>
<path d="M3440 3238 c0 -19 -155 -154 -175 -152 -14 2 -6 -10 69 -101 23 -28
26 -29 50 -15 33 20 28 35 -11 31 -24 -2 -34 3 -44 20 -11 21 -7 27 52 81 35
33 76 65 90 71 l27 12 -29 35 c-19 22 -29 29 -29 18z"/>
<path d="M2248 3143 c-9 -2 -24 -15 -32 -29 -16 -24 -16 -24 21 -24 40 0 133
-29 133 -41 0 -4 -9 -11 -20 -14 -28 -9 -25 -21 8 -29 28 -6 69 -33 61 -40 -2
-2 -33 1 -69 6 -70 10 -147 5 -199 -13 -23 -8 -38 -24 -56 -60 -53 -103 -54
-199 -4 -245 20 -18 21 -18 34 -1 7 10 19 17 27 16 7 -2 32 16 56 39 79 77 78
45 -1 -37 -72 -75 -97 -120 -97 -173 0 -22 9 -22 34 -3 24 18 38 19 34 3 -5
-28 46 -151 81 -196 21 -26 43 -57 50 -70 20 -37 34 -27 27 21 -4 23 -8 60 -9
82 -2 35 1 40 21 43 23 4 25 9 22 55 -1 19 8 37 31 60 22 21 42 58 59 107 27
79 47 94 42 32 -19 -270 -34 -525 -41 -733 0 -19 -7 -44 -15 -55 -14 -18 -15
-18 -45 10 -16 16 -33 42 -36 57 -8 35 -21 30 -30 -11 -3 -16 -15 -40 -26 -54
-10 -13 -20 -34 -21 -47 -3 -19 4 -24 47 -36 28 -8 80 -14 116 -14 36 1 85 -6
109 -14 60 -21 86 -19 114 12 23 25 28 26 93 20 47 -4 73 -2 86 7 21 16 22 73
2 100 -15 19 -15 19 -15 -1 0 -24 -24 -48 -40 -38 -5 3 -10 15 -10 26 0 32
-19 59 -42 59 -17 0 -18 -2 -8 -15 11 -13 8 -15 -21 -14 -19 1 -26 3 -15 6 15
4 14 8 -13 24 -28 17 -31 24 -31 68 0 27 -6 64 -14 82 -9 22 -16 97 -21 204
-9 224 -21 355 -34 368 -13 13 -14 27 -2 46 13 21 44 -1 81 -59 34 -53 44 -60
54 -35 19 49 58 -26 59 -112 1 -63 1 -64 26 -61 43 5 63 57 58 153 -4 90 -15
114 -69 151 -20 14 -39 33 -42 41 -10 25 50 8 94 -27 43 -34 50 -36 50 -15 0
27 17 16 59 -40 23 -30 46 -55 51 -55 17 0 32 84 27 150 -8 95 -20 116 -84
140 -59 22 -182 27 -227 10 -32 -12 -36 8 -6 35 15 14 42 19 120 23 68 3 100
8 97 16 -6 17 -78 54 -119 61 -39 7 -43 25 -7 25 12 0 19 5 17 13 -6 16 -94
21 -140 7 -25 -7 -52 -27 -79 -60 -23 -28 -45 -50 -48 -50 -3 0 -18 20 -33 45
-16 26 -48 58 -75 75 -41 26 -55 30 -117 29 -39 -1 -79 -3 -88 -6z"/>
<path d="M3593 3021 c-15 -24 -181 -114 -199 -107 -7 3 5 -30 29 -73 41 -76
42 -78 68 -67 31 13 33 32 2 28 -13 -1 -28 6 -37 20 -21 29 -20 45 2 52 10 4
45 23 78 42 32 20 70 39 84 43 l26 6 -21 37 c-19 34 -22 35 -32 19z"/>
<path d="M1686 2803 c-3 -4 3 -17 15 -29 23 -25 20 -74 -4 -74 -20 0 -188 58
-202 70 -9 7 -15 0 -23 -29 -15 -48 -15 -58 -1 -44 13 13 198 -41 215 -63 10
-12 17 1 39 66 15 45 25 82 24 84 -18 11 -58 23 -63 19z"/>
<path d="M3474 2725 c3 -9 6 -26 6 -38 0 -16 3 -18 12 -9 13 13 64 16 72 4 2
-4 7 -23 11 -43 6 -31 4 -36 -20 -47 -20 -9 -31 -10 -40 -2 -11 9 -11 3 -3
-32 6 -24 12 -44 13 -46 2 -2 22 10 46 26 24 16 74 46 112 66 55 30 67 42 67
61 0 14 -4 25 -10 25 -31 0 -229 32 -249 41 -20 8 -22 7 -17 -6z m214 -51 c7
-5 -79 -55 -87 -50 -9 6 -21 53 -14 59 4 5 96 -4 101 -9z"/>
<path d="M1436 2568 c-13 -49 -6 -89 19 -113 37 -37 63 -32 115 25 50 54 82
63 100 30 13 -25 -1 -56 -30 -65 -11 -3 -20 -10 -20 -15 0 -8 52 -21 60 -14 2
3 6 33 8 68 4 57 2 65 -19 80 -39 27 -77 20 -115 -20 -19 -19 -34 -39 -34 -44
0 -15 -40 -22 -55 -10 -21 18 -18 58 5 72 27 17 25 28 -4 28 -16 0 -26 -7 -30
-22z"/>
<path d="M3716 2503 c-11 -11 -7 -23 9 -23 17 0 39 -36 30 -50 -3 -6 -51 -10
-105 -10 -76 0 -102 4 -114 16 -15 14 -16 11 -15 -38 0 -29 3 -47 6 -40 3 8
36 12 112 12 59 0 110 -3 113 -6 11 -10 -4 -43 -23 -49 -29 -10 -22 -25 11
-25 l31 0 -3 107 c-3 99 -4 106 -24 109 -12 2 -24 1 -28 -3z"/>
<path d="M2050 2379 c-82 -21 -122 -44 -191 -111 -37 -36 -49 -57 -64 -110
-15 -57 -16 -73 -5 -119 23 -94 101 -160 221 -185 76 -16 162 -9 244 18 56 20
47 32 -29 40 -46 4 -90 17 -133 38 -53 26 -68 40 -93 83 -38 66 -40 130 -6
202 21 46 78 108 121 132 10 6 16 15 14 21 -3 6 -30 3 -79 -9z m-18 -54 c-54
-62 -75 -109 -80 -180 -3 -54 0 -66 30 -115 39 -64 110 -112 195 -131 70 -16
50 -29 -56 -36 -284 -20 -427 234 -231 411 37 33 150 96 173 96 5 0 -9 -20
-31 -45z"/>
<path d="M1674 2360 c-16 -16 -213 -43 -228 -31 -10 8 -12 4 -8 -22 6 -51 11
-61 25 -49 15 12 201 36 221 29 11 -4 13 3 9 36 -7 50 -7 49 -19 37z"/>
<path d="M3293 2318 c1 -15 6 -23 11 -18 4 4 4 16 -2 26 -9 16 -10 14 -9 -8z"/>
<path d="M2812 2279 c-5 -19 -6 -38 -3 -44 3 -5 9 8 12 30 9 50 3 58 -9 14z"/>
<path d="M2790 2220 c0 -5 5 -10 11 -10 5 0 7 5 4 10 -3 6 -8 10 -11 10 -2 0
-4 -4 -4 -10z"/>
<path d="M2784 2185 c-4 -8 -7 -26 -8 -40 0 -14 -5 -25 -10 -25 -5 0 -7 -3 -4
-6 4 -3 0 -21 -8 -39 -8 -19 -14 -37 -14 -39 0 -6 61 -1 194 15 79 10 91 9
101 -5 16 -21 51 -21 59 0 6 15 18 16 99 10 50 -4 109 -9 130 -13 37 -6 37 -6
27 22 -5 14 -8 31 -4 36 3 5 1 9 -5 9 -5 0 -13 -4 -16 -10 -14 -23 -72 -10
-116 25 -52 41 -92 45 -126 13 l-23 -21 -23 21 c-33 31 -61 27 -118 -18 -55
-43 -110 -60 -134 -40 -9 8 -12 17 -6 24 4 6 11 22 13 36 3 14 9 33 13 43 4
10 3 17 -4 17 -7 0 -14 -7 -17 -15z"/>
<path d="M3323 2139 c-2 -23 3 -25 10 -4 4 8 3 16 -1 19 -4 3 -9 -4 -9 -15z"/>
<path d="M1615 2059 c-68 -19 -87 -103 -36 -158 74 -79 196 12 150 112 -17 39
-68 58 -114 46z"/>
<path d="M3485 2035 c-18 -17 -25 -35 -25 -63 0 -77 72 -122 138 -88 38 20 52
44 52 91 0 53 -36 85 -95 85 -35 0 -52 -6 -70 -25z"/>
<path d="M2988 2033 c7 -3 16 -2 19 1 4 3 -2 6 -13 5 -11 0 -14 -3 -6 -6z"/>
<path d="M3143 2033 c9 -2 23 -2 30 0 6 3 -1 5 -18 5 -16 0 -22 -2 -12 -5z"/>
<path d="M2823 2023 c9 -2 25 -2 35 0 9 3 1 5 -18 5 -19 0 -27 -2 -17 -5z"/>
<path d="M3308 2023 c6 -2 18 -2 25 0 6 3 1 5 -13 5 -14 0 -19 -2 -12 -5z"/>
<path d="M2738 2013 c12 -2 30 -2 40 0 9 3 -1 5 -23 4 -22 0 -30 -2 -17 -4z"/>
<path d="M3029 2007 c5 -5 19 -7 32 -5 20 3 19 5 -9 9 -20 3 -29 2 -23 -4z"/>
<path d="M3227 1815 c-23 -29 -25 -35 -11 -35 21 0 157 -127 164 -153 4 -15
10 -12 38 18 26 27 30 35 16 35 -17 0 -149 119 -169 152 -9 16 -13 14 -38 -17z"/>
<path d="M2020 1723 c-59 -40 -178 -103 -197 -103 -14 -1 -12 -6 12 -27 21
-19 30 -22 33 -12 7 21 33 49 46 49 6 0 24 -12 40 -26 29 -25 29 -27 14 -53
-8 -14 -20 -25 -26 -24 -7 2 -12 0 -11 -5 0 -8 59 -56 62 -51 8 12 90 217 94
234 2 12 -3 24 -14 31 -15 9 -25 7 -53 -13z m6 -35 c-2 -7 -10 -30 -17 -50
-14 -44 -15 -44 -49 -19 -20 16 -22 21 -11 35 7 9 19 16 26 16 7 0 18 7 25 15
15 18 34 20 26 3z"/>
<path d="M3067 1689 c-23 -17 -25 -23 -14 -33 20 -17 93 -117 114 -157 17 -32
22 -35 38 -26 15 8 99 70 113 82 6 6 -30 55 -40 55 -6 0 -8 -12 -5 -29 5 -22
0 -34 -17 -50 l-23 -22 -39 53 c-68 91 -84 117 -84 133 0 20 -9 19 -43 -6z"/>
<path d="M2130 1655 c-7 -8 -9 -22 -6 -31 6 -16 8 -16 24 0 20 18 48 21 56 7
10 -16 -84 -201 -102 -201 -13 0 -12 -3 5 -15 11 -8 33 -19 48 -25 22 -8 26
-8 22 4 -3 8 10 49 29 93 20 43 38 86 41 96 11 34 41 14 58 -37 5 -18 7 -17
21 9 8 15 13 29 12 31 -9 8 -174 84 -184 84 -6 0 -17 -7 -24 -15z"/>
<path d="M2966 1636 c-20 -9 -24 -15 -14 -19 19 -7 78 -152 78 -190 0 -20 -7
-30 -26 -37 -34 -13 -61 2 -72 43 -5 17 -19 56 -31 86 -12 30 -20 60 -17 68 7
16 3 16 -40 -2 -33 -13 -34 -16 -20 -31 9 -8 16 -21 16 -29 0 -29 60 -144 80
-155 29 -16 89 -4 118 23 29 27 28 62 -4 151 -14 39 -23 78 -21 88 6 21 -6 22
-47 4z"/>
<path d="M2366 1565 c8 -19 -24 -196 -38 -213 -14 -16 -11 -18 42 -27 37 -6
43 -5 33 6 -7 9 -8 29 -4 54 10 59 32 51 57 -20 19 -52 25 -60 53 -66 17 -4
31 -6 31 -5 0 10 -42 111 -51 122 -9 11 -8 14 3 14 23 0 51 36 51 65 0 40 -27
60 -97 73 -81 15 -87 15 -80 -3z m112 -28 c6 -5 12 -25 12 -43 0 -27 -6 -37
-24 -46 -41 -18 -55 -5 -49 44 2 24 6 49 8 55 4 13 29 8 53 -10z"/>
<path d="M2650 1448 c-18 -62 -37 -121 -42 -130 -8 -16 -4 -18 29 -17 21 0 32
3 26 6 -18 7 -17 73 1 73 7 0 27 3 43 6 25 5 31 2 41 -21 10 -21 10 -31 1 -41
-9 -12 -4 -14 35 -14 25 0 46 1 46 3 0 1 -22 56 -49 122 -43 103 -53 120 -74
123 -23 3 -26 -3 -57 -110z m80 -30 c0 -14 -8 -18 -35 -18 -19 0 -35 1 -35 3
0 2 7 28 16 58 l17 54 18 -40 c10 -22 19 -48 19 -57z"/>
<path d="M3722 3674 c-15 -26 -39 -65 -54 -88 -15 -22 -25 -42 -23 -45 10 -10
77 54 101 97 15 26 34 55 42 65 14 16 13 17 -12 17 -21 0 -32 -10 -54 -46z"/>
<path d="M1261 3611 c-12 -35 -20 -65 -18 -68 7 -6 49 107 44 120 -2 6 -13
-18 -26 -52z"/>
<path d="M3360 3602 c21 -13 100 -22 100 -11 0 5 -11 9 -24 9 -13 0 -39 3 -57
6 -23 4 -29 2 -19 -4z"/>
<path d="M1374 3518 c3 -13 6 -26 6 -30 0 -5 9 -8 20 -8 27 0 25 -14 -7 -61
-27 -37 -58 -54 -47 -25 6 15 -21 46 -41 46 -21 0 -85 -78 -85 -103 0 -13 6
-31 13 -41 11 -15 17 -17 35 -7 29 15 29 0 1 -45 -29 -48 -60 -48 -158 -3 -69
32 -111 37 -111 15 0 -12 79 -50 163 -79 9 -4 22 -17 28 -31 9 -19 6 -34 -16
-84 -15 -34 -43 -75 -62 -92 -32 -30 -34 -34 -28 -78 10 -72 14 -81 45 -97 33
-17 216 -22 190 -5 -8 5 -47 10 -87 10 -61 0 -74 3 -83 19 -18 34 -12 51 18
51 41 0 74 27 70 57 -2 20 -25 45 -45 48 -1 1 11 29 28 64 28 59 29 64 14 93
-18 38 -18 39 -1 32 40 -15 96 56 96 123 0 38 3 43 28 49 42 10 102 73 102
107 0 39 -15 64 -50 82 -39 20 -43 19 -36 -7z"/>
<path d="M1120 3500 c-21 -21 -27 -50 -10 -50 6 0 10 5 10 10 0 6 7 10 15 10
18 0 19 -18 5 -56 -16 -41 -2 -42 15 -1 31 75 8 130 -35 87z"/>
<path d="M4035 3475 c32 -20 60 -34 62 -31 6 5 -92 66 -107 66 -8 0 12 -16 45
-35z"/>
<path d="M1512 3432 c-7 -5 -10 -16 -7 -24 4 -11 -1 -18 -15 -23 -25 -8 -21
-30 6 -30 12 0 18 6 16 17 -1 9 6 19 18 23 11 3 20 15 20 26 0 20 -16 24 -38
11z"/>
<path d="M3724 3388 c-47 -43 -110 -128 -95 -128 5 0 32 29 60 65 50 63 63 71
95 59 14 -5 14 -8 1 -27 -20 -28 -19 -71 1 -88 12 -10 22 -10 45 -2 28 11 30
10 44 -23 19 -46 59 -84 89 -84 25 0 25 0 9 -29 -16 -26 -16 -31 1 -75 10 -26
30 -61 44 -78 15 -17 45 -59 67 -92 26 -40 48 -62 63 -64 28 -4 28 -2 -8 61
-30 54 -38 100 -21 126 18 29 41 -6 78 -119 4 -12 7 -11 13 5 24 58 -2 120
-64 149 -47 22 -76 21 -76 -4 0 -32 -18 -23 -40 20 -29 57 -5 93 97 144 45 22
73 49 73 70 0 18 -44 0 -109 -44 -41 -27 -81 -50 -91 -50 -33 0 -94 100 -105
171 -6 43 -9 47 -53 62 -26 10 -53 17 -60 17 -7 0 -33 -19 -58 -42z"/>
<path d="M946 3334 c-3 -26 -6 -61 -5 -78 1 -26 3 -24 10 14 18 99 20 110 11
110 -5 0 -12 -21 -16 -46z"/>
<path d="M4217 3353 c-14 -14 -6 -43 16 -58 13 -8 29 -26 35 -40 13 -28 43
-33 62 -10 11 13 10 14 -4 9 -20 -8 -47 13 -40 30 3 8 -5 16 -21 20 -22 6 -26
11 -22 31 4 24 -11 34 -26 18z"/>
<path d="M881 3039 c-14 -41 -4 -55 18 -27 l18 22 7 -22 c4 -12 5 -37 1 -55
-5 -26 -4 -29 5 -14 6 9 10 41 8 70 -3 44 -6 52 -24 55 -17 2 -24 -5 -33 -29z"/>
<path d="M4240 3055 c0 -16 79 -115 92 -115 4 0 -13 27 -39 60 -44 58 -53 66
-53 55z"/>
<path d="M4226 2570 c-3 -8 -12 -33 -19 -55 -14 -40 -15 -40 -72 -45 l-58 -5
47 -33 c25 -18 46 -34 46 -36 0 -1 -7 -24 -16 -50 -9 -26 -14 -50 -11 -53 4
-3 25 9 47 27 l41 33 45 -33 c25 -18 47 -30 50 -28 2 3 -3 26 -13 53 l-16 48
44 38 44 38 -53 1 c-52 0 -53 1 -68 38 -31 77 -31 78 -38 62z"/>
<path d="M945 2520 l-17 -50 -56 0 -57 0 44 -38 43 -37 -15 -53 c-9 -28 -14
-52 -11 -52 3 0 25 14 49 30 l44 30 53 -37 c31 -23 49 -31 46 -21 -4 9 -12 35
-19 59 l-13 42 43 38 42 38 -57 3 -58 3 -15 48 c-8 26 -18 47 -22 47 -4 0 -15
-22 -24 -50z"/>
<path d="M3980 2010 c-12 -8 -13 -13 -3 -29 10 -16 9 -20 -2 -25 -17 -6 -18
-15 -6 -34 7 -11 12 -12 29 -1 16 10 18 16 10 26 -7 9 -7 17 2 28 12 15 7 45
-7 45 -4 0 -15 -5 -23 -10z"/>
<path d="M4056 1962 c-2 -4 2 -15 9 -25 9 -13 20 -16 39 -11 21 5 26 3 26 -13
0 -32 -31 -113 -44 -113 -6 0 -12 -16 -12 -37 -1 -21 -9 -55 -18 -76 l-16 -39
-26 31 c-51 60 -110 24 -102 -61 3 -24 8 -51 13 -61 6 -15 -3 -12 -42 12 -28
17 -55 31 -61 31 -6 0 -21 14 -35 31 -17 22 -31 30 -47 27 l-23 -3 27 -32 c17
-20 51 -41 96 -58 39 -15 80 -35 92 -45 l23 -19 -22 -38 c-13 -23 -29 -38 -40
-37 -13 0 -18 -8 -19 -27 -2 -53 -64 -111 -129 -121 -17 -3 -20 -12 -23 -63
-3 -55 0 -63 29 -98 26 -31 69 -64 147 -111 6 -4 12 -3 12 3 0 6 -33 33 -74
60 -40 27 -76 57 -79 65 -12 30 13 61 28 36 3 -5 24 -10 45 -10 49 0 62 28 32
69 -20 27 -20 28 -1 40 27 16 58 69 52 90 -3 12 2 17 18 18 11 1 22 3 23 5 30
46 96 166 133 241 40 81 46 100 36 116 -10 16 -8 20 12 29 37 17 59 118 35
162 -15 28 -101 53 -114 32z m-52 -328 c-1 -16 -9 -47 -19 -69 -17 -40 -17
-40 -27 -15 -17 45 7 127 36 117 6 -2 10 -17 10 -33z"/>
<path d="M892 1950 c-31 -13 -55 -74 -48 -122 15 -93 92 -198 145 -198 29 0
44 34 36 81 -11 62 12 48 47 -28 17 -38 35 -71 42 -75 28 -19 69 -5 146 47 44
30 91 55 104 55 15 0 27 9 34 25 11 23 10 25 -17 25 -19 0 -49 -16 -87 -46
-72 -55 -111 -77 -129 -70 -8 3 -25 29 -39 59 -28 59 -55 77 -113 77 l-36 0 6
-60 c4 -33 3 -60 -1 -60 -12 0 -70 123 -77 164 -14 74 13 115 78 117 36 1 38
2 17 9 -34 11 -80 11 -108 0z"/>
<path d="M3981 1826 c-9 -10 -8 -16 4 -26 19 -15 47 3 38 26 -7 18 -27 18 -42
0z"/>
<path d="M3822 1681 c-10 -6 -10 -10 1 -20 18 -14 48 -4 40 15 -6 16 -21 18
-41 5z"/>
<path d="M1283 1480 c-48 -21 -60 -57 -23 -67 45 -12 12 -33 -51 -33 -52 0
-115 33 -140 73 l-21 32 6 -30 c12 -56 29 -86 57 -100 35 -19 53 -19 116 0 85
25 165 120 117 139 -19 7 -11 9 -61 -14z m27 -25 c0 -8 -7 -15 -15 -15 -8 0
-15 7 -15 15 0 8 7 15 15 15 8 0 15 -7 15 -15z"/>
<path d="M3987 1373 c-12 -3 -15 -11 -11 -28 4 -17 1 -25 -14 -29 -14 -5 -18
-13 -15 -27 4 -12 11 -18 20 -15 8 3 18 6 22 6 5 0 6 11 3 25 -3 18 0 25 11
25 9 0 18 4 21 9 9 13 -18 38 -37 34z"/>
<path d="M1593 1303 c-15 -6 -17 -43 -3 -43 12 0 24 25 18 38 -1 5 -9 7 -15 5z"/>
<path d="M1622 1272 c-7 -5 -10 -16 -6 -25 5 -13 10 -14 25 -7 10 6 16 17 13
25 -7 17 -13 18 -32 7z"/>
<path d="M1380 1244 c-6 -14 -10 -32 -10 -40 0 -8 -7 -17 -16 -21 -28 -11
-117 16 -146 44 -30 29 -34 23 -17 -26 21 -60 83 -73 166 -34 31 15 34 14 72
-16 21 -17 49 -31 61 -31 26 0 100 70 100 94 0 15 -3 15 -30 1 -18 -9 -30 -23
-30 -35 0 -11 -6 -20 -14 -20 -21 0 -86 77 -80 95 5 11 -1 15 -20 15 -19 0
-29 -7 -36 -26z"/>
<path d="M1677 1228 c-37 -50 -107 -178 -97 -178 15 0 69 72 105 142 38 71 33
91 -8 36z"/>
<path d="M3450 1231 c0 -16 27 -51 86 -110 74 -74 83 -80 64 -46 -12 22 -51
71 -86 110 -54 58 -64 65 -64 46z"/>
<path d="M2198 1152 c-21 -8 -38 -19 -38 -23 0 -5 17 -1 38 8 44 21 46 22 41
26 -2 2 -21 -3 -41 -11z"/>
<path d="M3397 1099 c-26 -15 -47 -70 -47 -123 0 -37 -5 -48 -24 -62 -14 -8
-33 -14 -43 -12 -10 1 -28 -7 -40 -19 -25 -25 -65 -38 -87 -30 -8 3 -36 51
-63 106 -49 101 -71 127 -59 69 4 -18 10 -62 13 -98 l6 -65 -34 36 c-31 33
-124 89 -149 89 -12 0 -13 -59 -2 -77 4 -6 20 -16 34 -22 22 -8 29 -7 37 6 8
15 14 13 54 -10 25 -15 48 -31 51 -36 11 -16 -13 -72 -48 -113 -20 -23 -34
-43 -32 -45 8 -9 65 27 86 54 20 25 22 37 18 121 l-4 94 23 -53 c31 -70 69
-119 93 -119 31 0 69 21 76 42 4 15 12 18 30 14 13 -4 33 -2 44 4 15 8 21 6
29 -7 10 -16 10 -16 11 3 0 11 14 30 31 43 42 31 89 108 89 146 0 20 -9 40
-23 53 -26 24 -43 27 -70 11z m73 -60 c0 -15 -74 -89 -89 -89 -20 0 -12 38 15
69 25 30 74 43 74 20z"/>
<path d="M2147 1087 c-11 -28 1 -39 36 -31 32 6 47 20 46 39 0 6 -3 4 -6 -3
-4 -10 -8 -10 -19 -1 -11 9 -15 8 -20 -5 -8 -21 -22 -20 -26 2 -3 16 -4 16
-11 -1z"/>
<path d="M1921 1051 c-8 -5 -11 -16 -6 -30 5 -18 9 -20 21 -10 12 10 17 8 28
-6 15 -21 36 -12 36 14 0 25 -11 33 -27 19 -10 -8 -16 -7 -26 5 -8 11 -17 14
-26 8z"/>
<path d="M2237 1053 c-4 -7 -15 -54 -23 -104 -16 -99 -25 -124 -52 -138 -20
-11 -92 15 -92 33 0 7 -17 10 -50 8 -103 -8 -240 74 -240 142 0 18 6 38 13 45
10 11 8 11 -10 2 -24 -12 -53 -59 -53 -87 0 -39 42 -83 112 -119 59 -29 81
-35 135 -35 46 0 65 -4 69 -14 6 -16 55 -36 85 -36 11 0 28 9 39 20 26 26 30
25 30 -4 0 -28 15 -41 57 -50 24 -6 35 -3 51 14 19 20 20 20 55 4 30 -14 39
-15 52 -4 15 13 20 66 9 108 -11 39 -49 28 -84 -23 -31 -44 -44 -50 -87 -39
-31 9 -36 44 -18 150 17 95 17 150 2 127z m163 -248 c20 -24 -1 -38 -28 -19
-23 16 -21 34 2 34 8 0 19 -7 26 -15z"/>
<path d="M2583 965 c-47 -20 -43 -45 6 -45 22 0 42 -4 45 -8 3 -5 -14 -27 -38
-50 -52 -49 -71 -107 -55 -165 14 -53 78 -89 162 -90 54 -1 70 3 127 36 71 40
70 42 -13 26 -141 -29 -268 34 -250 123 11 55 116 128 185 128 13 0 18 7 18
25 0 24 -2 25 -64 25 -35 0 -70 2 -78 5 -7 2 -28 -2 -45 -10z"/>
<path d="M2793 582 c-58 -38 -63 -45 -17 -26 38 15 88 55 69 53 -6 0 -29 -12
-52 -27z"/>
</g>
</svg>
